<svg xmlns="http://www.w3.org/2000/svg" width="96" height="22" viewBox="0 0 1535 350">
  <defs>
    <style>
      .cls-1, .cls-2 {
        fill-rule: evenodd;
      }

      .cls-2 {
        fill: #ff5b5b;
      }
    </style>
  </defs>
  <path id="Text" class="cls-1" d="M252,257H221c-0.335-4.349-2.668-7.672-4-11q-0.5-3-1-6h-1v-2h-1q-1-4.5-2-9h-1v-2h-1q-0.5-3-1-6h-1q-0.5-3-1-6h-1v-2h-1v-3h-1q-0.5-3-1-6h-1v-2h-1v-3h-1q-0.5-3-1-6h-1c-2.484-2.173-18.937-1-24-1H107L83,257H55l5-16h1v-2h1v-3h1v-2h1l1-6h1v-2h1v-3h1v-2h1l1-5h1l1-6h1v-2h1v-3h1v-2h1v-3h1v-2h1v-3h1v-2h1l1-6h1v-2h1v-3h1v-2h1v-3h1v-2h1l1-6c10.06-22.9,18.988-48.092,29-71q0.5-3,1-6h1V90h1V87h1V85h1q0.5-2.5,1-5h1q0.5-3,1-6h1V72h1V69h1V67h1q0.5-2.5,1-5h1V59h1c1.128-2.768,4.436-15.134,6-16h31l4,12h1v2h1v3h1v2h1v3h1v2h1q0.5,3,1,6h1v2h1v3h1q0.5,2.5,1,5h1v2h1v3h1v2h1q0.5,3,1,6h1v2h1v3h1v2h1v3h1v2h1v3h1v2h1q0.5,3,1,6h1q0.5,2.5,1,5h1v2h1v3h1v2h1v3h1v2h1q0.5,3,1,6h1v2h1v3h1v2h1v3h1v2h1q0.5,3,1,6h1q0.5,2.5,1,5h1v2h1v3h1v2h1v3h1v2h1q0.5,3,1,6h1v2h1v3h1v2h1v3h1v2h1v3h1v2h1q0.5,3,1,6h1q0.5,2.5,1,5h1v2h1v3h1v2h1v3h1v2h1q0.5,3,1,6h1v2h1v3h1v2h1ZM558,43h25v79h2c5.239-11.848,16.265-17.763,29-22l12-1V98h15v1h8v1h4v1h4l18,9,3,4h2q0.5,1,1,2l4,3v2l4,3v2l2,1v2l2,1v2l2,2v2h1v2h1v2h1v3h1v3h1v3h1v3h1v4h1v6c1.236,4.321,3.83,21.584,2,28h-1v8h-1v5h-1v4h-1v4h-1v3h-1v3h-1v2h-1l-3,9-2,1v2l-2,1v2l-4,3v2l-5,4q-0.5,1-1,2h-2l-2,3h-2q-0.5,1-1,2h-2l-2,2h-2v1h-2v1l-4,1v1l-7,1c-14.619,4.842-31.188,3.168-44-2h-3v-1l-4-1v-1l-4-1q-0.5-1-1-2h-2c-3.667-2.447-9.809-8.2-11-13h-2v21H559c-1.851-5.085-1-14.273-1-21V43Zm416,0h147V67H1002v68h111v24H1002v74h120v24H974V43Zm180,0h25V257h-25V43Zm66,0h25V257h-25V43ZM389,55h25v47h31v23H414v60c0,15.512-.338,32.376,2,45,2.731,1.584,2.446,2.742,7,3,2.232,2.013,17.331,1.088,22,1v23l-36-1-9-3v-1a8.469,8.469,0,0,0-4-2,8.216,8.216,0,0,0-2-4h-1l-3-9v-7c-2.134-7.476-1-19.81-1-29V125H363V102h26V55ZM152,69l-3,11h-1v2h-1q-0.5,3-1,6h-1v2h-1q-1,4.5-2,9h-1v2h-1q-1,4.5-2,9c-8.081,18.473-13.986,39.178-22,58h73c-0.655-3.508-2.8-7.046-4-10v-3h-1v-2h-1q-1-4.5-2-9h-1v-3h-1v-2h-1v-3h-1q-0.5-3-1-6h-1v-2h-1v-3h-1v-3h-1v-3h-1v-3h-1v-2h-1q-0.5-3-1-6h-1v-3h-1v-2h-1q-0.5-3-1-6h-1q-0.5-3-1-6h-1V89h-1q-0.5-3-1-6c-1.779-4.45-4.306-8.365-5-14h-2ZM350,98v27c-28.255-.172-43.561,10.527-52,30q-0.5,3.5-1,7c-3.055,9.156-3,20.312-3,33v62H268V102h24v32h2c0.666-3.181,3.321-8.482,5-11l2-1v-2l4-3C314.055,104.436,328.224,97.855,350,98ZM1422,237v20c-5.77.611-14.38,5.289-22,3l-9-3c-1.33-1.666-2.67-3.334-4-5h-1c-2.13-3.186-2.97-9.572-3-15h-2v2c-1.67,1.333-3.33,2.667-5,4v1h-2l-3,4h-2c-0.33.667-.67,1.333-1,2l-6,2v1l-4,1v1h-3c-10.87,4.324-28.59,7.053-42,3h-5v-1h-3v-1h-3v-1h-2v-1l-6-2c-0.33-.667-0.67-1.333-1-2h-2c-1.67-2-3.33-4-5-6-0.67-.333-1.33-0.667-2-1v-2c-0.67-.333-1.33-0.667-2-1-0.33-1.333-.67-2.667-1-4h-1v-3c-1.63-4.091-5.09-16.642-3-24h1v-6h1c0.33-2,.67-4,1-6h1v-2c0.67-.333,1.33-0.667,2-1v-2c0.67-.333,1.33-0.667,2-1v-2c1.67-1.333,3.33-2.667,5-4,0.67-1,1.33-2,2-3h2c0.33-.667.67-1.333,1-2l4-1v-1l4-1v-1h3v-1h3v-1h3v-1h4v-1h4v-1h5v-1l10-1v-1h6l28-5v-1h2v-1h2v-1h2c0.33-.667.67-1.333,1-2,2.36-1.688,1.79,1.066,3-3,6.57-5.671.65-21.427-3-26l-3-1c-0.67-1-1.33-2-2-3h-2v-1l-6-1v-1l-26-1v1l-9,1v1h-3c-9.76,4.307-16.63,12.322-17,26h-25c0.07-29.587,19.09-42.993,42-50l15-1V98h18v1l16,1v1h4v1h3v1h2v1h3v1h2c0.33,0.667.67,1.333,1,2h2c0.33,0.667.67,1.333,1,2h2c0.33,0.667.67,1.333,1,2,1.33,1,2.67,2,4,3v2c0.67,0.333,1.33.667,2,1,0.67,2,1.33,4,2,6h1v2h1q0.495,7.5,1,15c1.62,5.81,1,15.559,1,23v43c0,7.481-1.55,25.338,2,29C1411.29,237.654,1416.98,237.13,1422,237ZM719,102h28v1h1l3,11h1q0.5,3,1,6h1q0.5,3,1,6h1v2h1v3h1q1,4.5,2,9c8.073,18.377,13.962,39.607,22,58q1,4.5,2,9h1v3h1v2h1v3h1v3h1v3h1v3h1q0.5,2.5,1,5h1v-1h1q0.5-3,1-6h1v-3h1v-3h1v-2h1q1-4.5,2-9h1q0.5-3,1-6c8.629-21.58,15.413-45.452,24-67q0.5-3,1-6h1v-3h1v-3h1v-3h1v-3h1v-3h1v-2h1q0.5-3,1-6h1c2.384-2.139,20.877-1.086,26-1a38.689,38.689,0,0,1-2,8h-1v2h-1v3h-1v2h-1q-0.5,3-1,6h-1v2h-1q-0.5,2.5-1,5h-1q-0.5,3-1,6h-1v2h-1q-0.5,2.5-1,5h-1q-0.5,3-1,6h-1v2h-1v3h-1v2h-1q-0.5,3-1,6h-1v2h-1v3h-1v2h-1q-0.5,3-1,6h-1v2h-1v3h-1v2h-1q-0.5,3-1,6h-1v2h-1q-0.5,2.5-1,5h-1q-0.5,3-1,6h-1v2h-1q-0.5,3-1,6h-1v2h-1q-0.5,2.5-1,5h-1q-0.5,3-1,6h-1v2h-1v3h-1v2h-1q-0.5,3-1,6h-1v2h-1v3h-1v2h-1q-0.5,3-1,6h-1v2h-1v3h-1v2h-1q-0.5,3-1,6h-1v2h-1v3h-1v2h-1q-0.5,3-1,6h-1v2h-1v3h-1v2h-1v3h-1q-1,3-2,6h-1v2h-1q-1,3-2,6l-2,1v2l-2,1v2l-3,2v2l-2,2h-2l-2,3h-2q-0.5,1-1,2c-3.351,2.055-19.49,5.9-26,4v-1c-4.448-1.308-7.045.948-10-2-2.045-2.27-1.087-18.217-1-23h1c2.944,3.115,19.261,4.636,23,1,7.22-1.693,11.284-10.738,14-17v-3h1v-2h1v-3h1v-2h1v-3h1c0.756-1.572,3.569-8.034,3-10h-1v-2h-1v-3h-1q-0.5-2.5-1-5h-1v-2h-1v-3h-1v-2h-1v-3h-1v-2h-1q-0.5-2.5-1-5h-1v-3h-1v-2h-1v-3h-1v-2h-1v-3h-1v-2h-1v-3h-1v-2h-1v-3h-1v-2h-1q-0.5-2.5-1-5h-1v-3h-1v-2h-1q-0.5-2.5-1-5h-1v-3h-1v-2h-1v-3h-1v-2h-1v-3h-1v-2h-1v-3h-1v-2h-1v-3h-1v-2h-1v-3h-1v-2h-1v-3h-1v-2h-1v-3h-1v-2h-1v-3h-1v-2h-1v-3h-1v-2h-1q-0.5-2.5-1-5h-1v-3h-1v-2h-1v-3h-1v-2h-1v-3h-1v-2h-1v-3h-1v-2h-1Zm-98,19-14,5q-0.5,1-1,2h-2l-2,3h-2l-3,4h-1v2l-3,2-7,14v4h-1v4h-1v5h-1c-1.29,4.507.07,22.811,1,26v6h1v4h1v4h1v2h1l3,9,2,1v2l4,3q0.5,1.5,1,3h2l3,4h2q0.5,1,1,2l4,1v1l4,1v1c3.212,1.271,21.783,3.579,27,2v-1l10-2v-1l4-1q0.5-1,1-2h2l3-4,6-5v-2l2-1v-2h1q1-3,2-6h1q1-4.5,2-9h1q0.5-6,1-12h1c1.385-4.959.057-19.484-1-23v-5h-1v-5h-1v-3h-1v-3h-1v-2h-1v-2h-1v-2l-2-2v-2l-2-1v-2l-4-3-5-6h-2q-0.5-1-1-2h-2v-1l-6-2v-1l-8-1v-1H621Zm759,56c-3.98,4.343-15.49,5.108-22,7h-8v1h-7v1h-7v1h-6c-15,4.72-26.48,9.454-26,30,0.33,2.333.67,4.667,1,7h1c0.33,1,.67,2,1,3,1.67,1.333,3.33,2.667,5,4v1h2c0.33,0.667.67,1.333,1,2,3.33,0.667,6.67,1.333,10,2,15.02,4.7,35.83-3.211,44-9l3-4c0.67-.333,1.33-0.667,2-1v-2l3-2v-2h1c0.33-1.333.67-2.667,1-4h1c2.37-6.025,1-16.374,1-24C1381,184.474,1381.71,178.924,1380,177Zm76,45c4.06-.132,9.08.12,11,2h2v1l6,5v2c0.67,0.333,1.33.667,2,1,1.9,3.695,1.43,14.638-1,17-0.48,1.967-2.68,6.03-4,7h-2v1c-1.23.956-1.93,0.742-3,2l-11,1c-5.28-1.624-11.61-4.452-13-10h-1v-3c-3.05-7.35-.89-8.34,0-16,2.3-1.46,2.9-4.482,5-6h2v-1c1.24-.963,1.94-0.71,3-2h4v-1Z"/>
  <path id="Punkt" class="cls-2" d="M1473,257c-4.4,1.174-11.01,6.606-19,4v-1l-5-1v-1a8.432,8.432,0,0,0-4-2c-1.29-4.851-7.35-10.152-5-18h1v-4h1c0.33-1.333.67-2.667,1-4h1a8.378,8.378,0,0,0,2-4l3-1v-1h2v-1l14-1c1.75,1.964,2.29.842,4,2,0.67,1,1.33,2,2,3h2c0.33,1,.67,2,1,3h1c0.33,1,.67,2,1,3,0.67,0.333,1.33.667,2,1v14C1476.62,249.179,1473.52,254.9,1473,257Z"/>
</svg>
